<svg width="52" height="25" viewBox="0 0 52 25" fill="none" xmlns="http://www.w3.org/2000/svg">
<path d="M20.3431 5.65686L2 24H10L23.1716 10.8284C24.5049 9.49509 25.1716 8.82843 26 8.82843C26.8284 8.82843 27.4951 9.49509 28.8284 10.8284L42 24H50L31.6569 5.65685C28.9902 2.99019 27.6569 1.65685 26 1.65685C24.3431 1.65685 23.0098 2.99019 20.3431 5.65686Z" fill="#75F4F4" stroke="#75F4F4" stroke-linecap="round"/>
<path d="M10 24L23.1716 10.8284C24.5049 9.49509 25.1716 8.82843 26 8.82843C26.8284 8.82843 27.4951 9.49509 28.8284 10.8284L42 24" stroke="black" stroke-linecap="round"/>
<path d="M18 24L24.5858 17.4142C25.2525 16.7475 25.5858 16.4142 26 16.4142C26.4142 16.4142 26.7475 16.7475 27.4142 17.4142L34 24" stroke="black" stroke-linecap="round"/>
<path d="M24.5858 9.41421L10 24H18L25.2929 16.7071C25.6834 16.3166 26.3166 16.3166 26.7071 16.7071L34 24H42L27.4142 9.41421C26.6332 8.63317 25.3668 8.63316 24.5858 9.41421Z" fill="#FFF275" stroke="#FFF275"/>
<path d="M25.2929 16.7071L18 24H34L26.7071 16.7071C26.3166 16.3166 25.6834 16.3166 25.2929 16.7071Z" fill="#F7AEF8" stroke="#F7AEF8"/>
</svg>
